<?xml version="1.0" encoding="UTF-8"?>
<!-- Generator: Adobe Illustrator 21.0.0, SVG Export Plug-In . SVG Version: 6.00 Build 0)  -->
<svg version="1.1" id="Layer_1" xmlns="http://www.w3.org/2000/svg" xmlns:xlink="http://www.w3.org/1999/xlink" x="0px" y="0px" width="800px" height="296.4px" viewBox="0 0 800 296.4" style="enable-background:new 0 0 800 296.4;" xml:space="preserve">
<style type="text/css">
	.st0{fill:#FFFFFF;}
	.st1{fill:#FF0000;}
</style>
<path class="st0" d="M147.2,9.8h506.1c40.3,0,73,32.8,73,73l0,0c0,40.3-32.8,73-73,73H147.2c-40.3,0-73-32.8-73-73l0,0  C74.2,42.6,107,9.8,147.2,9.8z"/>
<path class="st1" d="M653.3,165.6H147.2c-45.4,0-82.8-37.4-82.8-82.8S101.8,0,147.2,0h506.1c45.4,0,82.8,37.4,82.8,82.8  S698.8,165.6,653.3,165.6z M147.2,19.6C112.1,19.6,84,47.7,84,82.8s28.2,63.3,63.3,63.3h506.1c35.1,0,63.3-28.2,63.3-63.3  s-28.2-63.3-63.3-63.3C653.3,19.6,147.2,19.6,147.2,19.6z"/>
<path class="st1" d="M212.2,121.4V44.9h-23v53.5l-33.9-53.5h-24.7v76.5h23V66.1l35.7,55.2H212.2z"/>
<path class="st1" d="M249.6,121.4V69.6h-23v51.8H249.6z"/>
<path class="st1" d="M249.6,58.7V44.9h-23v13.8H249.6z"/>
<path id="_x33_162" class="st1" d="M330.1,121.4V85.7c0-7.5-14.4-17.8-21.9-17.8h-6.9c-5.2,0-10.9,4.6-16.1,6.9v-5.2h-23v51.8h23  V85.7c0-3.5,8.1-7.5,11.5-7.5s9.8,4,9.8,7.5v35.7H330.1z"/>
<path id="_x33_162_1_" class="st1" d="M522.8,123.1V87.4c0-7.5-14.4-17.8-21.9-17.8H494c-5.2,0-10.9,4.6-16.1,6.9v-5.2h-23v51.8h23  V87.4c0-3.5,8.1-7.5,11.5-7.5s9.8,4,9.8,7.5v35.7H522.8z"/>
<path class="st1" d="M367.5,121.4V69.6h12.1v-6.9h-12.1V51.8h-23.6v10.9h-12.1v6.9h12.1v51.8H367.5z"/>
<path class="st1" d="M411.8,67.9c-18.4,0-33.9,12.7-33.9,28.2c0,16.1,15.5,28.8,33.9,28.8c16.1,0,29.3-9.2,32.8-21.3H421v6.9  c0,5.8-4,7.5-9.2,7.5c-5.2,0-8.6-1.7-8.6-7.5V96h42.6C445.7,80.5,430.8,67.9,411.8,67.9z M411.8,73c5.2,0,9.2,3.5,9.2,9.2v5.2h-17.8  v-5.2C403.2,76.5,406.6,73,411.8,73z"/>
<path class="st1" d="M638.4,67.9c-19,0-33.9,12.7-33.9,28.2c0,16.1,15,28.8,33.9,28.8c18.4,0,33.9-12.7,33.9-28.8  C672.3,80.5,656.8,67.9,638.4,67.9z M638.4,73c5.2,0,8.6,3.5,8.6,9.2v28.2c0,5.8-3.5,7.5-8.6,7.5c-5.8,0-9.2-1.7-9.2-7.5V82.2  C629.2,76.5,632.6,73,638.4,73z"/>
<path class="st1" d="M572.3,44.9V73c0,0-6.9-5.2-16.1-5.2c-14.4,0-26.5,12.7-26.5,26.5c0,14.4,12.1,28.8,26.5,28.8  c9.2,0,16.1-3.5,16.1-3.5v1.7h23V44.9H572.3z M563.6,76.5c5.2,0,8.6,4,8.6,9.2V107c0,5.2-3.5,6.9-8.6,6.9c-5.8,0-9.2-1.7-9.2-6.9  V85.7C554.4,80.5,557.9,76.5,563.6,76.5z"/>
<g>
	<path class="st1" d="M679.2,54.6c0-1.7-1.2-4-3.5-4h-5.2v10.9h1.7v-2.9h2.3l2.3,3.5l1.7-1.2l-1.7-2.9   C678.6,57.5,679.2,56.4,679.2,54.6z M676.9,56.4c-0.6,0.6-0.6,0.6-1.2,0.6h-2.9v-4h2.9c1.2,0,1.7,1.2,1.7,1.7   C677.5,55.2,677.5,55.8,676.9,56.4z"/>
	<path class="st1" d="M675.2,44.9c-6.9,0-12.1,5.2-12.1,12.7c0,6.3,5.2,12.1,12.1,12.1c6.3,0,12.1-5.8,12.1-12.1   C687.3,50,681.5,44.9,675.2,44.9z M675.2,67.3c-5.8,0-9.8-4.6-9.8-9.8c0-5.8,4-10.4,9.8-10.4c5.2,0,9.8,5.2,9.8,10.4   C685,62.1,680.4,67.3,675.2,67.3z"/>
</g>
<path id="_x32_399" d="M121.9,233.5v-33.4c0-6.3-6.3-12.7-12.7-12.7H61v46h15v-31.1c0-2.3,1.7-4.6,4-4.6h23c2.3,0,4.6,2.3,4.6,4.6  v31.1H121.9z"/>
<path id="_x32_399_1_" d="M521.1,233.5v-33.4c0-6.3-6.3-12.7-12.7-12.7h-48.3v46h15v-31.1c0-2.3,1.7-4.6,4-4.6h23  c2.3,0,4.6,2.3,4.6,4.6v31.1H521.1z"/>
<path d="M727,187.5h-48.3v46h15v-31.1c0-2.3,1.7-4.6,4-4.6h23c2.3,0,4.6,2.3,4.6,4.6v31.1h14.4v-33.4  C739.6,193.8,733.3,187.5,727,187.5z"/>
<path d="M596.4,187.5h-65v46h15v-31.1c0-2.3,1.7-4.6,4-4.6h8.6c1.7,0,4,2.3,4,4.6v31.1h15v-31.1c0-2.3,1.7-4.6,4-4.6h8.6  c1.7,0,4,2.3,4,4.6v31.1h14.4v-33.4C609.1,193.8,602.7,187.5,596.4,187.5z"/>
<path d="M0,223.1c0,6.3,6.3,10.4,12.7,10.4h38v-9.8H16.7c-1.7,0-4-2.3-4-4.6c0-1.7,2.3-4,4-4h31.6v-9.2H16.7c-1.7,0-4-1.7-4-4  c0-2.3,2.3-4,4-4h33.9v-10.9H0V223.1z"/>
<path d="M237.5,223.7h-33.9c-1.7,0-4-2.3-4-4.6c0-1.7,2.3-4,4-4h31.6v-9.2h-31.6c-1.7,0-4-1.7-4-4c0-2.3,2.3-4,4-4h33.9v-10.9h-50.6  v36.2c0,6.3,6.3,10.4,12.7,10.4h38V223.7z"/>
<path d="M619.4,223.1c0,6.3,6.3,10.4,12.7,10.4h38v-9.8h-33.9c-1.7,0-4-2.3-4-4.6c0-1.7,2.3-4,4-4h31.6v-9.2h-31.6c-1.7,0-4-1.7-4-4  c0-2.3,2.3-4,4-4H670v-10.9h-50.6C619.4,186.9,619.4,223.1,619.4,223.1z"/>
<path d="M128.3,197.8h15c4,0,4,0,4,4.6v31.1h14.4v-31.1c0-4.6,0-4.6,4.6-4.6h14.4v-10.4h-52.3V197.8z"/>
<path d="M344.5,233.5v-31.1c0-4.6,0-4.6,4.6-4.6h14.4v-10.4h-52.3v10.4h15c4,0,4,0,4,4.6v31.1H344.5z"/>
<path d="M747.7,187.5v10.4h15c4,0,4,0,4,4.6v31.1H781v-31.1c0-4.6,0-4.6,4.6-4.6H800v-10.4H747.7z"/>
<path d="M289.9,225.4v8.1h12.7v-12.7c0-1.7-1.7-4-1.7-6.3c0-1.7,4-5.8,4-10.4v-4c0-4-6.3-12.7-10.4-12.7h-46.6v46h15v-8.1  c0-2.3,1.7-4.6,4-4.6h19C288.1,220.8,289.9,223.1,289.9,225.4z M262.8,206.5v-4c0-2.3,1.7-4.6,4-4.6h19c2.3,0,4,2.3,4,4.6v4  c0,2.3-1.7,4-4,4h-19C264.6,210.5,262.8,208.8,262.8,206.5z"/>
<path d="M384.8,220.8h27v12.7h15v-33.4c0-4-6.3-12.7-10.9-12.7h-35.7c-4,0-10.4,8.6-10.4,12.7v33.4h15  C384.8,233.5,384.8,220.8,384.8,220.8z M384.8,202.4c0-2.3,1.7-4.6,4-4.6h19c1.7,0,4,2.3,4,4.6v8.1h-27V202.4z"/>
<rect x="437.1" y="187.5" width="14.4" height="46"/>
<path d="M577.4,250.8h-65v46h15v-31.1c0-2.3,1.7-4.6,4-4.6h8.6c1.7,0,4,2.3,4,4.6v31.1h15v-31.1c0-2.3,1.7-4.6,4-4.6h8.6  c1.7,0,4,2.3,4,4.6v31.1h14.4v-33.4C590.1,257.1,583.8,250.8,577.4,250.8z"/>
<path d="M451.5,286.4c0,6.3,6.3,10.4,12.7,10.4h38V287h-33.9c-1.7,0-4-2.3-4-4.6c0-1.7,2.3-4,4-4h31.6v-9.2h-31.6c-1.7,0-4-1.7-4-4  s2.3-4,4-4h33.9v-10.9h-50.6C451.5,250.2,451.5,286.4,451.5,286.4z"/>
<path d="M392.8,261.1h15c4,0,4,0,4,4.6v31.1h14.4v-31.1c0-4.6,0-4.6,4.6-4.6h14.4v-10.4h-52.3V261.1z"/>
<path d="M209.9,261.1v6.3c0,4,8.6,10.4,12.7,10.4h25.3c2.3,0,4.6,2.3,4.6,4c0,2.3-2.3,4.6-4.6,4.6h-38v10.4h42.6  c4,0,12.1-6.3,12.1-10.4v-6.3c0-4.6-8.1-10.9-12.1-10.9h-25.3c-2.3,0-4.6-1.7-4.6-4s2.3-4,4.6-4h37.4v-10.4h-42  C218.5,250.8,209.9,257.1,209.9,261.1z"/>
<path d="M331.8,261.1v6.3c0,4,8.6,10.4,12.7,10.4h25.3c2.3,0,4.6,2.3,4.6,4c0,2.3-2.3,4.6-4.6,4.6h-38v10.4h42.6  c4,0,12.1-6.3,12.1-10.4v-6.3c0-4.6-8.1-10.9-12.1-10.9h-25.3c-2.3,0-4.6-1.7-4.6-4s2.3-4,4.6-4h37.4v-10.4h-42  C340.5,250.8,331.8,257.1,331.8,261.1z"/>
<path d="M311.1,267.4c0,1.7-2.3,4-4.6,4h-18.4c-2.3,0-4.6-2.3-4.6-4v-16.7h-14.4v20.7c0,4,6.3,10.4,10.4,10.4h10.4v15h15v-15h10.4  c4,0,10.4-6.3,10.4-10.4v-20.7h-14.4V267.4z"/>
</svg>