<?xml version="1.0" encoding="UTF-8" standalone="no"?>
<!-- Created with Inkscape (http://www.inkscape.org/) -->
<svg xmlns:dc="http://purl.org/dc/elements/1.1/" xmlns:cc="http://creativecommons.org/ns#" xmlns:rdf="http://www.w3.org/1999/02/22-rdf-syntax-ns#" xmlns:svg="http://www.w3.org/2000/svg" xmlns="http://www.w3.org/2000/svg" xmlns:sodipodi="http://sodipodi.sourceforge.net/DTD/sodipodi-0.dtd" xmlns:inkscape="http://www.inkscape.org/namespaces/inkscape" width="1000" height="799.95697" viewBox="0 0 264.58333 211.65528" version="1.1" id="svg9591" inkscape:version="0.92.2 (5c3e80d, 2017-08-06)" sodipodi:docname="PlayStation (Color).svg">
  <defs id="defs9585"/>
  <sodipodi:namedview id="base" pagecolor="#ffffff" bordercolor="#666666" borderopacity="1.0" inkscape:pageopacity="0.0" inkscape:pageshadow="2" inkscape:zoom="0.35" inkscape:cx="679.1594" inkscape:cy="312.10895" inkscape:document-units="mm" inkscape:current-layer="layer1" showgrid="false" units="px" inkscape:window-width="1360" inkscape:window-height="706" inkscape:window-x="-8" inkscape:window-y="-8" inkscape:window-maximized="1"/>
  <metadata id="metadata9588">
    <rdf:RDF>
      <cc:Work rdf:about="">
        <dc:format>image/svg+xml</dc:format>
        <dc:type rdf:resource="http://purl.org/dc/dcmitype/StillImage"/>
        <dc:title/>
      </cc:Work>
    </rdf:RDF>
  </metadata>
  <g inkscape:label="Layer 1" inkscape:groupmode="layer" id="layer1" transform="translate(0,-85.344693)">
    <g id="g9659" transform="matrix(1.6666667,0,0,1.6666667,1.7442847e-6,-197.99999)">
      <path id="path9593" d="m 145.38666,253.45455 c -9.51829,-3.20893 -19.05209,-4.24757 -27.93479,-3.81352 -8.21612,0.15502 -16.75778,1.65873 -25.53197,4.44911 l -3.069415,1.10065 23.191145,7.23948 6.24735,-2.2323 c 0,0 2.88339,-1.02314 5.92181,-1.4727 3.89102,-0.55808 7.84406,0.41856 7.84406,0.41856 2.2013,0.52707 3.37946,1.05414 3.81352,2.10828 0.40306,1.27117 -1.06965,2.32532 -4.24758,3.39496 l -5.65827,2.1548 22.09051,6.89843 c 7.61153,-3.03841 11.0685,-6.29385 10.66544,-10.3244 -0.21704,-4.01505 -4.88316,-7.17747 -13.33181,-9.92135 z" style="fill:#326db3;fill-opacity:1;stroke-width:3.968539" inkscape:connector-curvature="0"/>
      <path id="path9595" d="m 71.44162,249.74955 v -12.27767 l -19.362128,6.21635 z" style="fill:#1565c0;stroke-width:3.968539" inkscape:connector-curvature="0"/>
      <path id="path9597" d="m 58.419852,266.02676 -5.425735,1.92226 -4.945173,1.78274 -5.301722,2.10829 c 0,0 -4.774648,1.4417 -8.882705,1.70523 -4.092556,0.26354 -8.464147,-1.06964 -8.464147,-1.06964 -1.767242,-0.65109 -2.123792,-2.10829 -1.054143,-3.16243 1.054143,-0.63559 2.542345,-1.4882 4.232073,-2.13929 l 5.704775,-2.09279 10.169381,-3.42596 -22.912113,-7.17748 -4.185567,1.50371 -5.286217,2.12379 c -8.0300921,3.37945 -12.27766689,6.97594 -12.0606394,10.15388 0.41855783,4.63512 5.7202758,8.03008 15.2385704,10.58793 12.370678,3.33295 24.927385,4.01505 37.763128,2.07728 0,0 10.091871,-1.90676 28.167324,-7.78205 z" style="fill:#f3c202;fill-opacity:1;stroke-width:3.968539" inkscape:connector-curvature="0"/>
      <path id="path9599" d="m 96.508523,277.93238 -10.758459,4.07705 v 14.99054 l 21.129366,-8.21612 11.37855,-4.04605 z" style="fill:#f3c202;fill-opacity:1;stroke-width:3.968539" inkscape:connector-curvature="0"/>
      <path id="path9601" d="m 71.44162,249.74955 -19.362128,-6.06132 -4.030548,1.30217 -26.508601,9.5028 22.912113,7.16197 26.989164,-9.09974 z" style="fill:#00aa9e;fill-opacity:1;stroke-width:3.968539" inkscape:connector-curvature="0"/>
      <path id="path9603" d="m 112.04163,262.44577 -23.191145,-7.25498 -30.430633,10.83597 22.772591,7.11547 c 3.317452,-1.06965 6.882935,-2.27881 10.727457,-3.643 4.18557,-1.4572 17.47087,-6.10783 17.47087,-6.10783 z" style="fill:#00aa9e;fill-opacity:1;stroke-width:3.968539" inkscape:connector-curvature="0"/>
      <path id="path9605" d="m 125.96252,266.80187 -2.17029,0.82161 -27.283707,10.3089 21.749457,6.80542 24.36931,-8.65017 4.23207,-1.89126 c 0.41856,-0.15501 0.79061,-0.32554 1.19367,-0.48056 z" style="fill:#00aa9e;fill-opacity:1;stroke-width:3.968539" inkscape:connector-curvature="0"/>
      <path id="path9607" d="M 119.8702,195.10463 C 115.40559,189.08981 107.59253,184.17565 95.996954,180.1606 81.51799,175.47896 69.348835,172.0685 59.536003,170.00672 v 118.96316 l 26.214061,8.03009 v -98.98094 c 0,-2.68187 0.217039,-4.48011 1.333179,-5.59626 1.116151,-1.55021 2.232303,-1.76724 3.798019,-1.10065 3.782513,1.10065 5.565252,4.4646 5.565252,10.02986 v 40.60001 c 8.479656,4.01505 16.075686,4.44911 21.640936,0.23253 5.79779,-4.03054 8.91371,-11.16151 8.91371,-21.85796 0,-11.16152 -2.2323,-19.62567 -7.13096,-25.22193 z" style="fill:#de0029;fill-opacity:1;stroke-width:3.968539" inkscape:connector-curvature="0"/>
    </g>
  </g>
</svg>