<svg version="1.1" xmlns="http://www.w3.org/2000/svg" xmlns:xlink="http://www.w3.org/1999/xlink" enable-background="new 0 0 482.266 103.95" xml:space="preserve" width="482.266" height="103.95" style=""><rect id="backgroundrect" width="100%" height="100%" x="0" y="0" fill="none" stroke="none"/>

<g class="currentLayer" style=""><title>Layer 1</title><g id="svg_1" class="selected" stroke="#ffffff" stroke-opacity="1">
	<g id="svg_2" stroke="#ffffff" stroke-opacity="1">
		<path d="M335.362,71.101V41.126c0-6.115,2.853-10.494,8.941-10.494h37.547c0.23,0,0.451-0.228,0.451-0.454v-5.964    c0-0.052-0.016-0.103-0.035-0.152h-45.909c-9.951,1.265-14.811,8.2-14.811,17.064V71.1c0,6.115-2.935,10.495-8.94,10.495h-39.651    c-0.226,0-0.451,0.151-0.451,0.452v5.966c0,0.247,0.151,0.437,0.33,0.499h45.018C329.584,88.204,335.362,80.713,335.362,71.101z" id="svg_3" stroke="#ffffff" stroke-opacity="1"/>
		<path d="M181.105,88.513h13.183c0.178-0.063,0.33-0.253,0.33-0.499V68.911c0-6.115,3.454-10.344,8.486-10.344h54.301    c12.242,0,18.176-7.55,18.176-17.441c0-8.864-4.856-15.799-14.813-17.064h-79.907c-0.023,0.05-0.062,0.089-0.062,0.152v5.964    c0,0.302,0.15,0.454,0.45,0.454h71.574c6.084,0,8.938,4.379,8.938,10.494c0,6.116-2.854,10.495-8.938,10.495h-56.628    c-8.787,0-15.396,7.476-15.396,17.29v19.104C180.798,88.26,180.904,88.45,181.105,88.513z" id="svg_4" stroke="#ffffff" stroke-opacity="1"/>
		<g id="svg_5" stroke="#ffffff" stroke-opacity="1">
			<path fill="none" d="M393.715,74.649h60.465c0.221,0,0.451-0.227,0.451-0.453V36.974c0-0.83-0.752-0.906-1.131-0.604     l-60.156,37.222c-0.381,0.228-0.531,0.453-0.451,0.756C392.963,74.499,393.194,74.649,393.715,74.649z" id="svg_6" stroke="#ffffff" stroke-opacity="1"/>
			<path d="M382.081,81.596h72.1c0.223,0,0.371,0.15,0.371,0.302v6.116c0,0.302,0.23,0.453,0.451,0.453h12.996     c0.23,0,0.449-0.151,0.449-0.453v-5.965c0-0.228,0.23-0.453,0.451-0.453h12.916c0.301,0,0.451-0.227,0.451-0.452v-6.041     c0-0.228-0.15-0.453-0.451-0.453h-12.916c-0.221,0-0.451-0.228-0.451-0.453V30.632c0-3.555-1.32-5.819-3.541-6.57h-3.762     c-1.172,0.301-2.445,0.84-3.811,1.661l-77.656,47.945c-3.004,1.887-4.057,4-3.305,5.586     C376.973,80.614,378.696,81.596,382.081,81.596z M393.344,73.592l60.157-37.222c0.379-0.302,1.131-0.226,1.131,0.604v37.223     c0,0.228-0.229,0.453-0.451,0.453h-60.465c-0.52,0-0.752-0.149-0.821-0.302C392.813,74.045,392.963,73.819,393.344,73.592z" id="svg_7" stroke="#ffffff" stroke-opacity="1"/>
		</g>
	</g>
	<g id="svg_8" stroke="#ffffff" stroke-opacity="1">
		<path d="M50.373,0c5.858,1.092,11.616,2.652,17.346,4.278c3.278,0.952,6.547,1.937,9.795,2.986    c5.102,1.625,10.182,3.465,14.803,6.209c2.07,1.257,4.058,2.677,5.757,4.409c1.841,1.799,3.348,3.933,4.454,6.255    c2.015,4.208,2.705,8.909,2.909,13.531c0.096,3.016,0.09,6.058-0.473,9.035c-0.468,2.587-1.3,5.138-2.684,7.385    c-1.222,1.984-2.921,3.701-4.983,4.807c-1.978,1.067-4.243,1.574-6.486,1.529c-3.402,0.035-6.703-1.049-9.756-2.471    C81,47.8,81.047,37.645,81.031,27.494c-0.022-1.837,0.103-3.693-0.267-5.505c-0.26-1.404-0.833-2.819-1.935-3.772    c-0.731-0.659-1.678-1.031-2.63-1.232c-0.963-0.183-1.99,0.226-2.586,0.999c-0.991,1.238-1.251,2.882-1.296,4.423    c-0.008,27.181,0.01,54.363-0.008,81.542c-7.312-2.318-14.625-4.637-21.935-6.961C50.366,64.659,50.369,32.33,50.373,0z" id="svg_9" stroke="#ffffff" stroke-opacity="1"/>
		<path d="M17.507,68.784C27.04,65.409,36.563,62,46.1,58.637c0.015,3.742,0,7.486,0.006,11.232    c-0.006,0.508,0.027,1.019-0.037,1.523c-7.538,2.672-15.061,5.391-22.592,8.08c-1.044,0.395-2.115,0.841-2.92,1.638    c-0.375,0.374-0.68,0.927-0.475,1.462c0.258,0.631,0.902,0.975,1.496,1.234c1.652,0.672,3.458,0.768,5.218,0.848    c1.962-0.031,3.932-0.178,5.854-0.602c1.299-0.256,2.549-0.693,3.787-1.158c3.218-1.165,6.436-2.337,9.659-3.49    c0.024,3.166,0.004,6.334,0.01,9.504c-0.01,0.633,0.029,1.27-0.034,1.9c-3.958,0.711-7.963,1.193-11.986,1.257    c-8.101,0.183-16.221-1.071-23.916-3.603c-2.524-0.731-5.032-1.705-7.139-3.307c-1.16-0.898-2.198-2.027-2.725-3.416    c-0.442-1.177-0.41-2.535,0.141-3.671c0.531-1.132,1.459-2.026,2.481-2.722c2.365-1.633,4.973-2.878,7.616-3.989    C12.82,70.387,15.182,69.631,17.507,68.784z" id="svg_10" stroke="#ffffff" stroke-opacity="1"/>
		<path d="M94.21,64.52c2.162-0.25,4.338-0.308,6.511-0.387c7.151,0.027,14.338,0.916,21.178,3.062    c1.342,0.408,2.642,0.937,3.979,1.362c2.383,0.871,4.769,1.927,6.677,3.64c1.147,1.046,2.135,2.455,2.149,4.063    c0.068,1.31-0.525,2.566-1.374,3.531c-1.616,1.812-3.752,3.058-5.897,4.144c-2.283,1.164-4.737,1.915-7.131,2.801    c-14.612,5.247-29.225,10.492-43.835,15.745c-0.002-4.093,0.004-8.186-0.002-12.275c0.022-0.164-0.068-0.449,0.163-0.492    c11.118-3.955,22.233-7.922,33.349-11.889c1.503-0.562,3.122-0.969,4.398-1.988c0.522-0.41,1.033-1.063,0.777-1.766    c-0.267-0.615-0.905-0.955-1.492-1.21c-1.664-0.659-3.476-0.786-5.246-0.836c-2.771,0.019-5.567,0.36-8.202,1.249    c-7.919,2.775-15.824,5.584-23.745,8.35c0.001-4.395-0.002-8.787,0.002-13.181C82.2,66.432,88.184,65.213,94.21,64.52z" id="svg_11" stroke="#ffffff" stroke-opacity="1"/>
	</g>
</g></g></svg>