<svg xmlns="http://www.w3.org/2000/svg" viewBox="0 0 455.89 314.44"><defs><style>.cls-1{fill:#bbbdbf;}.cls-2{fill:#6d6e70;}.cls-3{fill:#231f20;}.cls-4{fill:#d0d2d3;}.cls-5{fill:#929497;}.cls-6{fill:#404041;}.cls-7{fill:#58595b;}.cls-8{fill:#a6a8ab;}.cls-9{fill:#2f3035;}.cls-10{fill:#d0cfd3;}.cls-11{fill:#e2e4ec;}.cls-12{fill:#5b5b61;}.cls-13{fill:#626269;}.cls-14{fill:#313337;}.cls-15{fill:#45464b;}.cls-16{fill:#42a6dd;}.cls-17{fill:#45a9de;}.cls-18{fill:#3f9ed7;}.cls-19{fill:#3a9ad5;}</style></defs><title>Asset 1</title><g id="Layer_2" data-name="Layer 2"><g id="Layer_1-2" data-name="Layer 1"><path class="cls-1" d="M448,165.85s7.55-1.1,7.86,15.73.53,39.45-19.24,66.52c0,0-3.09-19.18-3.25-20.12s-3.08-25.32-3.08-25.32l8.46-25.33S443.07,165.69,448,165.85Z"/><path class="cls-2" d="M324.32,259.6s50.37,7.21,69.21,4.87c17.93-2.22,39.16-7,44.59-19.06s1.81-20.42,0-23.25-4.64-20.45-1.18-32.87,5.19-18.72,11-23.44l-13.84-2.36-2.66,2.83s-22.82,57.4-23.29,57.64-16.68,17.39-17.62,17.39H348.07l-24.85.16Z"/><path class="cls-3" d="M336,254.79s3.61,2.88,6.77,3.15S369,259.27,369,259.27h4.88s-1.71-2.1-1.07-2.57-2.35-1.91-2.35-1.91Z"/><path class="cls-4" d="M339.91,255.41s5.49,6.79,17,6.84c10.73.05,15.39-5.55,15.39-5.55l-2.26-.41-1.88,0-12.67,1.58Z"/><path class="cls-5" d="M339.91,255.41l28.24.86S354.48,264.31,339.91,255.41Z"/><path class="cls-6" d="M425.14,213.53s-.47,11.78-.94,13c0,0,6.76,1.57,6,5.66s-3.46,18.87-34.45,23-68-1.41-68-1.41l13.53-15.73Z"/><path class="cls-3" d="M431.75,198.61s-1.18,2.12-5.31.82-1.3-10.61-1.3-10.61l11.58-17.94s3.29-.21,1.4,2.91a95.41,95.41,0,0,0-4.72,10.31S431,196.48,431.75,198.61Z"/><path class="cls-3" d="M335.17,248.74s25.64,2.68,40.43.95,42.62-6.42,49.54-36.16c0,0-3-29.52-5.54-32.7s-16-9.32-16-9.32a11.67,11.67,0,0,0-1.88,10.07s-20.45,11.95-56.31,6.76Z"/><polygon class="cls-6" points="419.48 182.44 430.1 199.43 431.75 198.61 424.2 180.83 419.48 182.44"/><path class="cls-6" d="M200.53,126s.88-15.87,42.47-16.18,79.28,7.39,116.08,42.27h21.59s31.26,30.4,34.33,30.4h9.2L384.09,126,331.71,92.32s-85.88-10.15-92.48-9.44S190.39,85,188,92.32s-1.65,25.47-1.42,26.77S188,126,188,126Z"/><path class="cls-7" d="M192.52,123.61S209.41,97.19,317,113.35L258.58,89.57s-67,2.83-69.53,4.09-18.56,24.44-16.67,25.43S189.38,128.08,192.52,123.61Z"/><path class="cls-8" d="M99.79,106.12l-2.24,3.42,12.5,13.57,7.2-1.86v-3.57s-7.43-8.49-8.14-8.49S99.79,106.12,99.79,106.12Z"/><path class="cls-9" d="M99.44,103.33,97,105.77l1.24,3.42s11.19-.6,15.59,9.9l3.46-6.13L105,102.35Z"/><path class="cls-7" d="M99.08,103.92s-3.42,2.08,0,5.5,10,11.83,10,11.83H107s-14.75-13.71-11.21-16.43S99.08,103.92,99.08,103.92Z"/><path class="cls-9" d="M130.53,50.15S165.77-6.07,242.22.54s101.6,88.08,101.6,88.08L218,62.51Z"/><path class="cls-10" d="M113.24,121.35s3.54-9.21-5.19-14.4-12.27-2.13-12.27-2.13l21.47-46.24s18.64-20.76,76.21-15.81,139,27.37,187.09,67,57.57,64,57.57,64-5.9,15.62-6.37,24.82c0,0-44.83-82.46-142.74-89.54,0,0-83.55-9.7-100.51,15.81Z"/><path class="cls-9" d="M258.58,131.23s39.63,9.93,72.9,31.4,17.69,75.2,9.2,82.78-46.24,44-72,50.46,13-96,13-96Z"/><path class="cls-11" d="M306.27,245.36a165.83,165.83,0,0,1-5.39,16c-16.35,41.69-63.54,51.13-98,52.85S61.17,309,39.94,301.43a58,58,0,0,1-8.42-3.75A64.19,64.19,0,0,1,11,280.07a37.86,37.86,0,0,1-2.18-3.18s-3.31-.66-4-8.11,21.79-2.58,21.79-2.58L15.09,162.86s-6-19.58-6.45-19.74S5.89,142,5.89,142l-1.6-3,19.06-19.89s151.47,3.66,177.66,4.84,76.6,2.44,94.37,32.33a114.38,114.38,0,0,1,11.48,25.83C312.58,201.16,312.85,221.93,306.27,245.36Z"/><path class="cls-1" d="M306.64,226.09c-1.4,34-20.51,55.21-31.69,59.69s-46.83,14.63-153.77,7.79S9.35,278,9.35,278c-4.67-14.37-5.92-38.69-5.8-62.15v-.24c.14-26.23,2-51.33,2.72-60.21l2.58-3.35c19.64.48,136.33,5.62,136.33,5.62s104.61,3.78,125.11,3.78c19.2,0,35.53,26.88,36.39,58.19C306.74,221.77,306.73,223.93,306.64,226.09Z"/><path class="cls-12" d="M307.53,222.44c-1.42,34-20.76,55.2-32.09,59.69S228,296.76,119.73,289.91,6.48,274.34,6.48,274.34C1.75,260,.48,235.65.6,212.2V212c.14-26.23,2-51.33,2.75-60.21L6,148.39C25.85,148.87,144,154,144,154s105.93,3.77,126.69,3.77c19.44,0,36,26.89,36.86,58.19C307.63,218.11,307.62,220.28,307.53,222.44Z"/><path class="cls-13" d="M307,214.21c0,.47,0,.95-.05,1.43-1.42,34-20.76,55.21-32.09,59.69S227.43,290,119.14,283.11,5.89,267.54,5.89,267.54C1.5,254.2.08,232.27,0,210.43v-.25C.15,184,2,158.85,2.76,150l2.62-3.35,2.19-2.78L5.89,142a3.87,3.87,0,0,1,.82-.37c24.61.72,136.73,5.58,136.73,5.58S249.37,151,270.13,151C290.6,151,307.86,180.8,307,214.21Z"/><path class="cls-14" d="M307.18,217.84c-1.42,34-20.77,55.2-32.09,59.69s-47.42,14.62-155.72,7.78S6.12,269.74,6.12,269.74C-4,238.89,1.73,162.23,3.05,146.57h0a23.53,23.53,0,0,1,4.51-2.74c24.61.71,136.1,5.57,136.1,5.57s105.94,3.78,126.7,3.78S308.59,183.86,307.18,217.84Z"/><path class="cls-15" d="M306.94,220.67c-1.42,34-20.76,55.21-32.09,59.69S227.43,295,119.14,288.14,5.89,272.57,5.89,272.57C1.16,258.2-.11,233.88,0,210.43v-.25C.15,184,2,158.85,2.76,150l2.62-3.35c19.88.48,138.06,5.63,138.06,5.63S249.37,156,270.13,156c19.45,0,36,26.89,36.86,58.19C307,216.34,307,218.51,306.94,220.67Z"/><path class="cls-16" d="M70.08,226.07,102.64,228a8.56,8.56,0,0,0,9-8.15l.07-1.21a8.61,8.61,0,0,0-8-9.14l-32.54-1.79a8.56,8.56,0,0,0-8.94,7.93l-.09,1.12A8.6,8.6,0,0,0,70.08,226.07Z"/><path class="cls-17" d="M6.12,139.35,23.27,121H28s4.87.79-4.33,11.41S6.12,139.35,6.12,139.35Z"/><path class="cls-17" d="M207.77,147.06s-24.23.86-24.22-10.07c0-12.07,10.93-11.12,21.47-10.93,6.62.11,38.06,3.38,38.06,3.38s15.18.79,15.49,11.32-8.49,8-16,7.63S222.24,147.06,207.77,147.06Z"/><path class="cls-18" d="M31.52,297.68A64.19,64.19,0,0,1,11,280.07c1.61.23,6.44,1.1,9.78,3.48C24.47,286.18,32.26,295.61,31.52,297.68Z"/><path class="cls-18" d="M203,312.29s-14.15,1.57-16.59-5.74,1.1-9.64,7.55-10.23,53.2-2.2,61.83-5.34l2.39-.47s3.49,4-1.39,8.88-15.1,7.16-15.1,7.16A360.94,360.94,0,0,1,203,312.29Z"/><path class="cls-19" d="M306.27,245.36c-1,.18-1.75-.14-1.41-1.34.65-2.24,3.5-11.91,4.2-28.29s-3.41-27.74-4.13-33c-.36-2.75.76-2,1.93-.59C312.58,201.16,312.85,221.93,306.27,245.36Z"/><path class="cls-3" d="M372.65,151.54h3s-27.49-26.31-52.38-33.15C323.22,118.39,357.78,136.32,372.65,151.54Z"/><ellipse class="cls-2" cx="450.64" cy="197.36" rx="13.68" ry="3.42" transform="translate(185.25 611.61) rotate(-81.01)"/></g></g></svg>