<?xml version="1.0" encoding="UTF-8"?>
<!DOCTYPE svg PUBLIC "-//W3C//DTD SVG 1.1//EN" "http://www.w3.org/Graphics/SVG/1.1/DTD/svg11.dtd">
<svg version="1.1" id="Layer_1" xmlns="http://www.w3.org/2000/svg" xmlns:xlink="http://www.w3.org/1999/xlink" x="0px" y="0px" width="1024px" height="1024px" viewBox="0 0 1024 1024" enable-background="new 0 0 1024 1024" xml:space="preserve">
<g>
	<polygon fill="#010101" points="5.102,854.903 22.371,782.827 39.623,769.097 56.892,769.097 39.623,841.175 56.892,830.879    70.708,779.396 81.081,769.097 105.246,769.097 87.977,841.175 105.246,827.444 115.595,782.827 129.415,769.097 150.134,769.097    132.864,837.745 112.149,854.903  "/>
	<polygon fill="#010101" points="704.225,854.903 713.066,813.716 727.53,799.989 747.601,799.989 736.963,843.976 754.232,833.681    758.599,810.284 768.968,799.989 793.137,799.989 782.498,843.976 798.761,833.053 803.506,813.716 817.309,799.989    835.222,799.989 826.383,837.745 802.862,854.903  "/>
	<path fill="#010101" d="M569.595,854.903l17.253-17.158h74.266c0,0,6.412,1.918,10.027-6.183c3.357-7.548-3.111-7.548-3.111-7.548   h-34.538c0,0-9.918-2.284-9.972-14.431c-0.125-29.915,24.419-37.665,24.419-37.665h72.522l-14.447,14.337h-37.987   c0,0-12.04,3.413-12.365,13.551c-0.144,4.565,5.448,3.611,5.448,3.611h31.086c0,0,17.933,3.022,13.803,22.373   c-5.449,25.354-24.173,29.112-24.173,29.112H569.595z"/>
	<path fill="#010101" d="M510.55,853.499h31.088l9.396-34.266c1.132-4.114,12.021-8.786,9.163-8.304   c-2.858,0.483,9.898-1.886,9.898-1.886s3.955,1.131,6.023,3.863c2.085,2.734-1.995,6.722-2.569,9.85   c-0.574,3.144,3.45,3.43,3.45,3.43h17.269c0,0,9.217-3.483,11.717-6.953c2.498-3.467,5.572-7.115,5.555-10.189   c-0.016-3.092-6.902-6.864-6.902-6.864l-6.92-3.436h-51.783c0,0-24.763,14.161-27.639,17.162   C517.393,816.826,510.55,853.499,510.55,853.499z"/>
	<path fill="#010101" d="M148.354,815.584c-2.46,2.807-10.187,27.028-8.427,30.89c1.759,3.865,11.229,8.428,11.229,8.428h50.532   c0,0,23.521-14.753,25.281-16.854c1.747-2.103,8.414-25.624,8.414-28.066c0-2.465-5.608-11.233-5.608-11.233h-58.956   C170.816,798.747,150.801,812.786,148.354,815.584z M187.657,809.98h15.489c0,0-1.796,18.597-5.661,23.863   c-3.865,5.263-12.633,9.831-12.633,9.831s-9.829,1.042-11.229,0c-1.402-1.063-0.362-11.232-0.362-11.232s1.401-10.891,3.165-14.052   C178.184,815.246,187.657,809.98,187.657,809.98z"/>
	<path fill="#010101" d="M336.461,815.584c-2.444,2.807-10.17,27.028-8.41,30.89c1.743,3.865,11.229,8.428,11.229,8.428h70.192   c0,0,2.334-11.196,5.23-22.463c2.713-10.602,6-26.9,6-28.086c0-2.461,17.538-24.564,17.538-24.564h-30.531l-15.436,18.956h-33.35   C358.923,798.747,338.924,812.786,336.461,815.584z M375.777,809.98h15.489c0,0-1.799,18.597-5.661,23.863   c-3.865,5.263-12.634,9.831-12.634,9.831s-9.828,1.042-11.229,0c-1.401-1.063-0.362-11.232-0.362-11.232s1.401-10.891,3.161-14.052   C366.307,815.246,375.777,809.98,375.777,809.98z"/>
	<path fill="#010101" d="M229.775,852.082c0,0,3.506-16.839,6.667-28.771c3.164-11.931,7.368-24.567,7.368-24.567h67.386   c0,0,8.823,0.953,11.93,5.97c3.125,4.994,2.102,13.673,2.102,13.673l-8.41,33.695h-28.091c0,0,2.464-15.082,5.625-28.067   c3.144-12.993-5.625-14.034-5.625-14.034h-16.837l-8.427,30.872c0,0-7.727,9.828-11.229,11.229   C248.734,853.499,229.775,852.082,229.775,852.082z"/>
	<path fill="#010101" d="M920.471,852.082c0,0,4.925-17.018,8.086-28.95c3.145-11.934,8.769-24.388,8.769-24.388h67.387   c0,0,8.802,0.953,11.93,5.97c3.11,4.994,2.101,13.673,2.101,13.673l-8.426,33.695h-30.872c0,0,5.263-15.082,8.406-28.067   c3.164-12.993-5.604-14.034-5.604-14.034h-16.854l-8.407,30.872c0,0-7.73,9.828-11.233,11.229   C942.229,853.499,920.471,852.082,920.471,852.082z"/>
	<path fill="#010101" d="M429.127,815.584c-2.459,2.807-10.19,27.028-8.426,30.89c1.759,3.865,11.229,8.428,11.229,8.428h50.532   c0,0,10.027-6.293,17.465-11.23c0,0-42.912,0.342-45.532,0c-1.148-0.162-0.773-5.338-0.574-8.428h34.519   c0,0,6.597-1.399,16.584-9.648c10.011-8.247,11.233-9.128,11.233-15.614c0-6.505-5.607-11.233-5.607-11.233h-58.956   C451.59,798.747,431.575,812.786,429.127,815.584z M468.428,809.98h22.641c0,0-2.463,8.585-14.918,14.034h-18.776   c-1.942-4.925,2.623-8.769,5.087-10.891C465.209,810.786,468.428,809.98,468.428,809.98z"/>
	<path fill="#010101" d="M883.971,852.082c0,0,8.5-27.35,11.412-37.019c1.58-5.266-1.942-5.087-8.609-5.087   c-6.668,0-10.354-1.401-19.641,14.034c-10.801,17.914,15.958,22.801,15.958,22.801l-1.922,5.267h-30.89   c0,0-16.834,0.717-16.834-19.643c0-24.922,30.869-33.695,30.869-33.695h67.387l-16.839,53.342H883.971z"/>
</g>
<path fill="#EE2D24" d="M648.118,290.855c4.848-0.351,9.753-0.516,14.725-0.516c108.18,0,200.816,104.712,207.754,158.053  c0.735,5.567,1.241,10.571,1.59,14.836c-1.451-145.368-228.19-332.284-410.229-332.284c-140.704,0-206.288,56.967-227.922,120.925  c-32.251,80.7,10.317,195.708,109.882,277.573c10.412,8.557,21.089,16.477,31.959,23.73c-4.877,0.331-9.762,0.517-14.717,0.517  c-108.181,0-200.829-104.72-207.773-158.075c-0.72-5.564-1.243-10.559-1.574-14.843c1.438,145.368,228.192,332.284,410.222,332.284  c140.698,0,206.289-56.946,227.941-120.926c32.229-80.697-10.325-195.689-109.902-277.572  C669.674,306.009,658.974,298.111,648.118,290.855z M445.336,532.364c-80.117-65.854-107.084-162.637-61.677-217.437  c45.453-54.878,147.641-48.542,229.72,15.368c81.436,63.453,112.774,159.762,70.952,217.303  c17.313-34.614-1.779-86.545-46.356-121.587c-48.329-37.993-108.511-41.763-135.284-9.141  c-26.743,32.571-10.843,90.091,36.341,129.24c36.341,30.155,80.775,40.829,112.396,29.767  C597.571,604.3,513.152,588.136,445.336,532.364z"/>
</svg>